<?xml version="1.0" encoding="utf-8"?>
<!-- Generator: Adobe Illustrator 21.0.2, SVG Export Plug-In . SVG Version: 6.00 Build 0)  -->
<svg version="1.1" id="Layer_1" xmlns="http://www.w3.org/2000/svg" xmlns:xlink="http://www.w3.org/1999/xlink" x="0px" y="0px"
	 viewBox="0 0 30 30" style="enable-background:new 0 0 30 30;" xml:space="preserve">
<style type="text/css">
	.st0{fill:none;}
	.st1{fill:#F9F9F9;}
</style>
<g>
	<polygon class="st0" points="30,17.3 17.3,30 23.4,30 30,23.4 	"/>
	<polygon class="st0" points="7.3,0 0,7.3 0,13.4 13.4,0 	"/>
	<polygon class="st0" points="0,0 0,3.4 3.4,0 	"/>
	<polygon class="st0" points="30,0 27.3,0 0,27.3 0,30 3.4,30 30,3.4 	"/>
	<polygon class="st0" points="17.3,0 0,17.3 0,23.4 23.4,0 	"/>
	<polygon class="st0" points="30,7.3 7.3,30 13.4,30 30,13.4 	"/>
	<polygon class="st0" points="27.3,30 30,30 30,27.3 	"/>
	<polygon class="st1" points="3.4,0 0,3.4 0,7.3 7.3,0 	"/>
	<polygon class="st1" points="30,13.4 13.4,30 17.3,30 30,17.3 	"/>
	<polygon class="st1" points="30,3.4 3.4,30 7.3,30 30,7.3 	"/>
	<polygon class="st1" points="23.4,0 0,23.4 0,27.3 27.3,0 	"/>
	<polygon class="st1" points="13.4,0 0,13.4 0,17.3 17.3,0 	"/>
	<polygon class="st1" points="30,23.4 23.4,30 27.3,30 30,27.3 	"/>
</g>
</svg>
